<svg xmlns="http://www.w3.org/2000/svg" viewBox="0 0 48 48" width="24px" height="24px">
<path fill="#263238" d="M30.5,5c-0.868,0-1.7,0.105-2.5,0.289C26.738,4.452,25.202,4,23.5,4C17.71,4,13,8.71,13,14.5 c0,4.295,2.543,7.93,6.199,9.544c-1.562,9.082-3.939,19.683-2.287,19.953c0.606,0.103,1.267-0.864,2.016-2.461 C19.672,39.85,20.567,38,23.5,38c2.961,0,3.839,1.866,4.555,3.566c0.742,1.577,1.392,2.531,1.994,2.431 c1.652-0.271-0.725-10.872-2.287-19.953C31.494,22.408,34,18.795,34,14.5c0-0.748-0.086-1.475-0.231-2.181 C31.89,10.892,30,9.5,30,9.5L30.5,5z"/>
<path fill="#ECEFF1" d="M25.97,5.424C28.131,6.44,30,8.36,30,9.5s-1.869,3.06-4.03,4.076C25.317,14.495,24.5,14.5,24.5,14.5 s-0.817-0.005-1.47-0.924C20.869,12.56,19,10.64,19,9.5s1.869-3.06,4.03-4.076C23.683,4.505,24.5,4.5,24.5,4.5 S25.317,4.505,25.97,5.424z"/>
</svg>